<svg id="visual" viewBox="0 0 900 600" width="900" height="600" xmlns="http://www.w3.org/2000/svg" xmlns:xlink="http://www.w3.org/1999/xlink" version="1.1"><path d="M0 217L25 215C50 213 100 209 150 186C200 163 250 121 300 123C350 125 400 171 450 163C500 155 550 93 600 82C650 71 700 111 750 130C800 149 850 147 875 146L900 145L900 0L875 0C850 0 800 0 750 0C700 0 650 0 600 0C550 0 500 0 450 0C400 0 350 0 300 0C250 0 200 0 150 0C100 0 50 0 25 0L0 0Z" fill="#ffe4c4"></path><path d="M0 229L25 230C50 231 100 233 150 210C200 187 250 139 300 147C350 155 400 219 450 217C500 215 550 147 600 126C650 105 700 131 750 152C800 173 850 189 875 197L900 205L900 143L875 144C850 145 800 147 750 128C700 109 650 69 600 80C550 91 500 153 450 161C400 169 350 123 300 121C250 119 200 161 150 184C100 207 50 211 25 213L0 215Z" fill="#f0d5b5"></path><path d="M0 229L25 239C50 249 100 269 150 256C200 243 250 197 300 199C350 201 400 251 450 266C500 281 550 261 600 259C650 257 700 273 750 281C800 289 850 289 875 289L900 289L900 203L875 195C850 187 800 171 750 150C700 129 650 103 600 124C550 145 500 213 450 215C400 217 350 153 300 145C250 137 200 185 150 208C100 231 50 229 25 228L0 227Z" fill="#e2c6a6"></path><path d="M0 253L25 271C50 289 100 325 150 323C200 321 250 281 300 275C350 269 400 297 450 310C500 323 550 321 600 328C650 335 700 351 750 361C800 371 850 375 875 377L900 379L900 287L875 287C850 287 800 287 750 279C700 271 650 255 600 257C550 259 500 279 450 264C400 249 350 199 300 197C250 195 200 241 150 254C100 267 50 247 25 237L0 227Z" fill="#d3b897"></path><path d="M0 307L25 336C50 365 100 423 150 441C200 459 250 437 300 428C350 419 400 423 450 435C500 447 550 467 600 458C650 449 700 411 750 397C800 383 850 393 875 398L900 403L900 377L875 375C850 373 800 369 750 359C700 349 650 333 600 326C550 319 500 321 450 308C400 295 350 267 300 273C250 279 200 319 150 321C100 323 50 287 25 269L0 251Z" fill="#c5a988"></path><path d="M0 337L25 367C50 397 100 457 150 478C200 499 250 481 300 470C350 459 400 455 450 461C500 467 550 483 600 478C650 473 700 447 750 436C800 425 850 429 875 431L900 433L900 401L875 396C850 391 800 381 750 395C700 409 650 447 600 456C550 465 500 445 450 433C400 421 350 417 300 426C250 435 200 457 150 439C100 421 50 363 25 334L0 305Z" fill="#b79b7a"></path><path d="M0 463L25 480C50 497 100 531 150 538C200 545 250 525 300 524C350 523 400 541 450 549C500 557 550 555 600 550C650 545 700 537 750 533C800 529 850 529 875 529L900 529L900 431L875 429C850 427 800 423 750 434C700 445 650 471 600 476C550 481 500 465 450 459C400 453 350 457 300 468C250 479 200 497 150 476C100 455 50 395 25 365L0 335Z" fill="#a98d6c"></path><path d="M0 499L25 513C50 527 100 555 150 562C200 569 250 555 300 551C350 547 400 553 450 559C500 565 550 571 600 570C650 569 700 561 750 563C800 565 850 577 875 583L900 589L900 527L875 527C850 527 800 527 750 531C700 535 650 543 600 548C550 553 500 555 450 547C400 539 350 521 300 522C250 523 200 543 150 536C100 529 50 495 25 478L0 461Z" fill="#9b7f5e"></path><path d="M0 559L25 564C50 569 100 579 150 580C200 581 250 573 300 570C350 567 400 569 450 571C500 573 550 575 600 580C650 585 700 593 750 597C800 601 850 601 875 601L900 601L900 587L875 581C850 575 800 563 750 561C700 559 650 567 600 568C550 569 500 563 450 557C400 551 350 545 300 549C250 553 200 567 150 560C100 553 50 525 25 511L0 497Z" fill="#8d7251"></path><path d="M0 601L25 601C50 601 100 601 150 601C200 601 250 601 300 601C350 601 400 601 450 601C500 601 550 601 600 601C650 601 700 601 750 601C800 601 850 601 875 601L900 601L900 599L875 599C850 599 800 599 750 595C700 591 650 583 600 578C550 573 500 571 450 569C400 567 350 565 300 568C250 571 200 579 150 578C100 577 50 567 25 562L0 557Z" fill="#806544"></path></svg>